<svg class="img-fluid" id="outputsvg" xmlns="http://www.w3.org/2000/svg" style="transform: matrix(1, 0, 0, 1, -0.58958, 5.4985); transform-origin: 50% 50%; cursor: move; max-height: none; transition: none 0s ease 0s;" width="232" height="134" viewBox="0 0 2320 1340"><g id="l54oZyvnKLszDKUvO81YjM" fill="rgb(3,4,6)" style="transform: none;"><g style="transform: none;"><path id="ph0EC5d8z" d="M161 1159 c-22 -18 -23 -22 -11 -44 17 -32 30 -32 30 0 0 23 3 25 50 25 43 0 50 3 50 20 0 17 -7 20 -47 20 -33 -1 -56 -7 -72 -21z"></path></g></g><g id="l5M9rlqa9feg9EqF57OWgQ8" fill="rgb(23,19,60)" style="transform: none;"><g style="transform: none;"><path id="pU9Pfq6Hq" d="M250 1150 l0 -30 925 0 925 0 0 30 0 30 -925 0 -925 0 0 -30z"></path><path id="pisxxhPLt" d="M2073 1091 c-57 -54 -63 -63 -63 -100 0 -27 5 -41 13 -41 19 0 165 152 169 175 2 16 -3 21 -27 23 -25 2 -41 -8 -92 -57z"></path></g></g><g id="l5vjpSnWsJTlPFwJBvaJgzi" fill="rgb(37,35,105)" style="transform: none;"><g style="transform: none;"><path id="pIzyVAYdF" d="M257 1173 c-11 -11 -8 -71 4 -79 18 -11 381 -18 899 -18 267 0 512 1 545 2 33 1 113 2 177 2 105 0 120 2 138 20 52 52 79 50 -723 53 l-742 2 743 3 c486 1 742 5 742 12 0 11 -1772 15 -1783 3z m206 -20 c-35 -2 -91 -2 -125 0 -35 2 -7 3 62 3 69 0 97 -1 63 -3z"></path></g></g><g id="l78aq4VMIHJIwh2eGZxw3HY" fill="rgb(44,47,88)" style="transform: none;"><g style="transform: none;"><path id="pj8gWHSD5" d="M216 1173 c-42 -5 -66 -22 -66 -48 0 -21 138 -165 158 -165 20 0 13 152 -7 161 -22 9 -22 39 0 39 10 0 19 5 19 10 0 10 -27 11 -104 3z"></path><path id="pcyjK7XxP" d="M1970 1171 c-11 -8 0 -11 45 -12 56 -1 58 -2 21 -9 -22 -4 -45 -15 -51 -24 -7 -9 -17 -16 -24 -16 -6 0 -11 -4 -11 -10 0 -5 21 -10 48 -11 l47 0 -55 -20 c-74 -26 -107 -63 -115 -132 -8 -62 1 -117 18 -117 14 0 227 211 227 225 0 5 -18 -9 -40 -30 -22 -21 -40 -34 -40 -27 0 7 18 30 40 52 45 45 47 50 23 50 -33 1 11 20 51 22 40 3 51 18 31 44 -10 15 -30 19 -106 21 -54 2 -100 0 -109 -6z"></path></g></g><g id="l1pkfq8fTF1DjDhZwupHXIf" fill="rgb(47,48,123)" style="transform: none;"><g style="transform: none;"><path id="pJ4tsOjVN" d="M390 1093 c0 -32 33 -46 94 -40 80 9 259 10 302 3 39 -7 39 -7 36 -47 -2 -22 1 -46 8 -54 15 -18 72 -19 120 -2 54 19 60 25 60 65 l0 37 98 -7 c53 -4 123 -4 155 -1 l57 6 0 -47 c0 -54 4 -56 120 -59 l75 -2 3 47 c3 44 2 47 -25 51 l-28 4 33 8 c22 5 32 13 32 26 0 17 -9 19 -92 20 -51 1 -113 3 -138 5 -25 2 -58 3 -75 3 -75 -2 -536 1 -677 3 -158 3 -158 3 -158 -19z"></path><path id="pKAULDaKN" d="M1613 1107 c-39 -7 -53 -14 -53 -27 0 -15 21 -18 195 -23 208 -7 235 -3 235 38 0 20 -3 21 -80 13 -48 -4 -90 -4 -106 2 -31 12 -121 11 -191 -3z"></path></g></g><g id="l5sui8OrrjZ4Ag2BB06lS2W" fill="rgb(63,68,113)" style="transform: none;"><g style="transform: none;"><path id="pUjmnJLOJ" d="M160 1154 c-16 -18 -3 -65 20 -72 11 -4 10 1 -4 17 -11 11 -14 21 -8 21 6 0 13 -4 16 -9 8 -12 56 -1 56 14 0 7 -10 16 -22 20 l-23 7 25 8 c23 7 22 8 -11 9 -22 1 -42 -5 -49 -15z"></path><path id="p1D4BOLzXs" d="M2080 1130 c-14 -4 -40 -8 -58 -9 -40 -1 -121 -41 -122 -60 0 -14 60 -12 108 4 16 5 22 3 22 -8 0 -13 6 -13 38 -3 34 10 112 66 112 81 0 8 -71 4 -100 -5z"></path><path id="pe6gQHfDo" d="M2129 1064 c-24 -26 -35 -42 -24 -36 25 13 80 70 74 77 -3 2 -25 -16 -50 -41z"></path><path id="pp7JeyaE3" d="M261 1077 c9 -7 19 -30 23 -52 l8 -40 -21 19 c-12 11 -21 15 -21 10 0 -5 26 -35 58 -67 62 -62 102 -74 122 -38 25 48 0 133 -47 161 -39 23 -152 30 -122 7z"></path><path id="pbUu6cHlG" d="M1855 1018 c-66 -23 -115 -97 -115 -172 0 -63 16 -93 53 -100 28 -6 37 0 94 56 35 34 63 67 63 72 0 5 -8 1 -19 -8 -18 -16 -19 -16 -24 6 -10 37 9 98 39 129 l28 29 -45 -1 c-24 0 -57 -5 -74 -11z"></path></g></g><g id="l3QYlKB1E5Vzxq1PQ43YqGT" fill="rgb(55,60,134)" style="transform: none;"><g style="transform: none;"><path id="p154BCmdRi" d="M280 1105 c0 -15 13 -24 53 -37 30 -10 68 -18 86 -18 17 0 49 -9 71 -20 22 -11 47 -20 57 -20 10 0 27 -7 37 -15 11 -8 32 -15 48 -15 17 0 31 -7 38 -20 6 -11 19 -20 30 -20 10 0 22 -4 25 -10 4 -6 56 -10 123 -10 112 -1 115 -1 83 -15 -32 -15 -33 -17 -28 -60 6 -57 30 -85 71 -85 29 0 45 8 112 55 23 16 42 19 105 18 73 -3 79 -5 112 -38 28 -28 43 -35 74 -35 51 0 63 14 63 72 0 47 -1 48 -42 65 l-43 18 110 13 c61 7 129 13 152 12 23 0 56 6 72 15 17 8 40 15 52 15 33 0 159 72 159 91 0 23 -62 31 -260 33 -153 1 -168 -1 -200 -21 -34 -21 -35 -21 -58 -3 -19 16 -35 18 -90 14 -37 -3 -74 -5 -82 -5 -8 -1 -72 2 -142 5 -115 6 -128 5 -137 -11 -9 -16 -12 -16 -20 -3 -11 15 -17 16 -221 25 -58 2 -118 5 -135 6 -16 1 -44 -4 -62 -12 -29 -12 -35 -11 -61 8 -20 15 -47 22 -90 25 -57 3 -62 1 -62 -17z m696 -76 c9 -15 -13 -32 -60 -48 -33 -11 -40 -11 -54 3 -21 21 -6 36 45 46 56 11 61 11 69 -1z m438 -10 c19 -15 34 -19 52 -15 21 6 25 4 22 -11 -3 -15 -12 -17 -48 -15 -71 4 -90 11 -90 31 0 37 25 41 64 10z"></path></g></g><g id="l1Eop8Z5woKBDyxtM4Bmnop" fill="rgb(98,92,88)" style="transform: none;"><g style="transform: none;"><path id="p1DD7HSNtL" d="M235 1170 c-11 -5 401 -10 955 -12 536 -2 977 -2 979 0 2 1 1 5 -3 10 -11 10 -1907 13 -1931 2z"></path></g></g><g id="l3wuzEhAhKo0NNmQYlvpuSv" fill="rgb(78,84,130)" style="transform: none;"><g style="transform: none;"><path id="p1F7tpv3N" d="M2104 1159 c71 -10 84 -19 28 -19 -26 0 -70 -13 -119 -36 -43 -20 -103 -45 -133 -56 -66 -25 -116 -56 -149 -92 -15 -16 -35 -26 -51 -26 -23 0 -29 -6 -34 -31 -11 -57 -7 -79 17 -90 20 -9 22 -16 19 -64 -3 -45 -1 -55 12 -55 9 0 25 -6 36 -12 18 -11 26 -7 72 39 l52 53 -31 6 c-30 6 -53 36 -53 70 0 23 35 87 62 111 12 11 43 27 68 34 25 7 54 18 65 25 11 6 37 17 58 24 24 7 37 18 37 29 0 11 13 20 43 28 23 7 51 15 62 19 19 7 19 7 3 -13 -22 -25 -23 -40 -2 -22 23 19 33 51 22 72 -7 14 -21 17 -76 16 l-67 -1 59 -9z"></path><path id="pbe8yetQp" d="M175 1120 c10 -11 26 -20 35 -20 9 0 22 -6 30 -12 8 -7 2 2 -14 20 -17 17 -39 32 -49 32 -19 0 -20 -1 -2 -20z"></path><path id="p1qMoDONH" d="M160 1105 c0 -18 354 -365 372 -365 24 0 25 71 1 106 -11 18 -15 44 -14 94 2 61 0 70 -21 84 -12 9 -40 16 -61 16 l-38 0 2 -50 c3 -64 -10 -78 -41 -45 -13 14 -30 25 -39 25 -9 0 -48 33 -88 72 -40 40 -73 68 -73 63z"></path></g></g><g id="l40ShdnX6mTYKoAAQAiXR9P" fill="rgb(73,78,146)" style="transform: none;"><g style="transform: none;"><path id="pjIHVaVrt" d="M390 1063 c0 -15 -6 -23 -17 -23 -17 -1 -17 -1 -1 -10 16 -10 34 -63 29 -87 -3 -19 13 -15 26 6 6 10 9 28 6 39 -4 18 -1 20 29 18 18 -2 43 -8 55 -14 12 -7 37 -12 56 -12 19 0 40 -7 47 -15 11 -14 110 -23 110 -11 0 17 -53 57 -79 60 -18 2 -38 9 -44 15 -6 6 -19 11 -29 11 -11 0 -33 8 -51 17 -18 9 -56 20 -84 23 -50 6 -53 5 -53 -17z"></path><path id="pI8yEI0gA" d="M1828 1053 c-27 -14 -48 -30 -48 -35 0 -4 22 -8 50 -8 59 0 120 26 120 52 0 28 -65 23 -122 -9z"></path><path id="pnVFQGoGF" d="M1060 995 c-51 -28 -129 -44 -211 -44 -46 0 -90 5 -96 11 -10 8 -13 2 -13 -24 0 -33 3 -36 56 -57 65 -25 132 -28 140 -7 3 8 20 18 37 21 18 3 50 14 72 24 74 34 123 40 176 25 26 -8 55 -21 63 -29 25 -26 119 -65 155 -65 52 0 113 22 119 42 3 13 14 18 42 18 58 0 70 8 70 47 0 29 -3 33 -17 25 -10 -6 -29 -6 -50 0 -24 6 -39 6 -48 -2 -8 -7 -48 -16 -89 -21 -61 -8 -83 -7 -112 6 -20 8 -48 15 -63 15 -14 0 -35 7 -45 15 -26 20 -152 20 -186 0z"></path><path id="p13QIEdPDj" d="M1157 891 c-3 -13 -17 -21 -45 -26 -38 -6 -122 -60 -122 -77 0 -17 174 3 194 22 4 4 33 0 64 -11 49 -17 122 -26 122 -15 0 2 -16 20 -36 40 -30 30 -43 36 -80 36 -38 0 -46 4 -56 25 -13 30 -34 33 -41 6z"></path></g></g><g id="l5nsm2AeMPhK4CnnfKCvjKc" fill="rgb(94,98,132)" style="transform: none;"><g style="transform: none;"><path id="pR6DwC0xR" d="M210 1112 c0 -11 74 -52 94 -52 9 0 34 -11 56 -25 22 -14 53 -27 69 -29 15 -2 33 -6 40 -10 7 -5 11 3 11 24 0 33 -20 46 -90 57 -19 4 -37 9 -40 12 -22 26 -140 45 -140 23z"></path><path id="p2AdMFngI" d="M1990 925 c-57 -58 -101 -107 -99 -110 3 -2 52 43 109 100 57 57 102 107 99 109 -3 3 -52 -42 -109 -99z"></path><path id="p11W9dKD7h" d="M1590 802 c0 -32 4 -42 21 -47 l21 -7 -22 -23 c-17 -18 -21 -32 -18 -71 l3 -49 48 1 c42 0 52 5 92 44 l44 43 -22 17 c-12 10 -27 15 -34 13 -18 -7 -17 32 2 47 16 13 20 46 7 54 -5 3 -39 8 -75 12 l-67 7 0 -41z"></path><path id="phzXA4EuU" d="M516 796 c4 -17 1 -25 -10 -28 -12 -2 19 -39 99 -118 l115 -115 0 40 c0 50 -9 85 -22 85 -15 0 -38 27 -38 44 0 9 -11 26 -25 38 -14 12 -25 27 -25 33 0 21 -36 45 -68 45 -29 0 -32 -2 -26 -24z"></path></g></g><g id="l17uPzMt61pXa5IKpe3LxPN" fill="rgb(88,97,150)" style="transform: none;"><g style="transform: none;"><path id="phrXQ6iTD" d="M1830 1041 c-19 -4 -49 -15 -67 -24 -18 -9 -41 -17 -52 -17 -29 0 -71 -21 -71 -36 0 -14 -35 -28 -49 -19 -16 9 -61 -6 -61 -21 0 -8 -7 -17 -15 -20 -33 -13 -14 -26 30 -22 l45 6 0 -34 c0 -56 16 -84 47 -83 27 0 28 1 6 11 -13 6 -23 15 -23 19 0 13 74 -2 87 -18 16 -20 33 -8 33 23 0 15 -6 24 -16 24 -32 0 -52 18 -47 45 4 19 11 25 32 25 19 0 40 14 70 44 24 25 54 47 67 50 17 5 24 13 24 31 0 14 -1 24 -2 24 -2 -1 -19 -4 -38 -8z"></path><path id="pWfAVaRaZ" d="M454 1008 c25 -22 36 -40 36 -60 0 -15 -4 -28 -9 -28 -5 0 -12 -8 -16 -19 -7 -22 54 -123 71 -117 6 3 17 -1 23 -7 8 -8 11 -1 11 26 0 34 2 37 29 37 35 0 81 35 81 62 0 17 4 19 23 13 35 -11 97 -18 97 -10 0 22 -58 65 -97 71 -23 3 -48 12 -54 20 -6 8 -28 14 -48 14 -20 1 -47 7 -61 15 -14 8 -47 14 -73 15 l-49 0 36 -32z"></path><path id="p72zA8HiY" d="M1076 973 c-15 -3 -42 -12 -60 -22 -17 -10 -47 -21 -68 -25 -20 -3 -39 -13 -42 -21 -3 -8 -12 -15 -21 -15 -8 0 -15 -7 -15 -15 0 -24 51 -18 131 16 41 17 82 33 92 36 10 3 17 15 17 29 0 13 -1 23 -2 23 -2 -1 -16 -4 -32 -6z"></path><path id="pZvXAPzCa" d="M1220 960 c0 -24 65 -60 107 -60 25 1 26 2 11 14 -10 7 -18 18 -18 24 0 9 -69 42 -90 42 -6 0 -10 -9 -10 -20z"></path><path id="p19840HRE6" d="M1165 870 c-8 -36 -11 -38 -61 -45 -52 -7 -114 -22 -121 -29 -4 -3 -15 1 -25 11 -17 15 -18 14 -18 -18 0 -19 5 -40 12 -47 14 -14 61 -16 86 -3 31 17 107 41 132 42 14 1 56 -10 94 -25 111 -42 146 -35 146 31 0 19 -3 23 -13 15 -20 -17 -182 43 -196 74 -14 32 -28 30 -36 -6z"></path><path id="pGbcgMtVE" d="M1885 820 c-27 -30 -12 -34 15 -5 13 14 19 25 13 25 -5 0 -18 -9 -28 -20z"></path></g></g><g id="l6dh86nzN7EaEG4to3f9pOz" fill="rgb(108,112,138)" style="transform: none;"><g style="transform: none;"><path id="pckyoZMaH" d="M203 1163 c15 -2 39 -2 55 0 15 2 2 4 -28 4 -30 0 -43 -2 -27 -4z"></path><path id="p1AkgLyUgn" d="M176 1120 c26 -26 97 -32 102 -9 4 19 -24 29 -83 29 l-39 0 20 -20z"></path><path id="pvWzPpXsf" d="M2038 1113 c-61 -16 -62 -17 -54 -39 4 -10 13 -14 24 -10 9 3 47 15 85 28 37 12 67 26 67 30 0 12 -59 7 -122 -9z"></path><path id="p10NkC3KEF" d="M2120 1055 c-30 -30 -52 -57 -49 -60 3 -2 29 20 59 50 30 30 52 57 49 60 -3 2 -29 -20 -59 -50z"></path><path id="pFOIgbgDq" d="M605 720 c-3 -5 -2 -10 4 -10 6 0 14 -12 17 -27 8 -30 26 -53 43 -53 5 0 13 -16 17 -35 6 -36 58 -90 75 -79 5 3 9 25 9 48 0 42 -1 44 -35 50 -32 6 -35 10 -35 44 0 20 -7 45 -14 55 -14 18 -71 24 -81 7z"></path><path id="p1DC41cnFq" d="M1553 700 c-17 -21 -23 -41 -23 -81 l0 -52 67 6 c58 6 72 11 98 37 l30 31 -50 -3 c-44 -2 -50 0 -53 18 -2 11 6 28 18 39 30 27 25 35 -22 34 -35 0 -47 -6 -65 -29z"></path></g></g><g id="l4LgdATcoQgr6Wmz1lAQwqN" fill="rgb(102,111,156)" style="transform: none;"><g style="transform: none;"><path id="p1DnO0v03c" d="M1785 1014 c-64 -23 -85 -36 -85 -55 0 -14 7 -16 43 -11 23 3 59 16 79 29 21 12 42 23 48 23 5 0 10 7 10 15 0 19 -41 19 -95 -1z"></path><path id="pbH8LRG8T" d="M524 991 c11 -11 25 -21 32 -21 7 0 19 -8 26 -18 7 -10 27 -22 43 -26 l30 -8 -28 -24 c-18 -16 -36 -22 -50 -19 -12 3 -28 1 -36 -4 -19 -12 -7 -73 19 -96 11 -10 20 -23 20 -30 0 -14 50 -59 57 -51 4 3 11 -2 18 -11 10 -14 13 -6 19 50 4 37 5 71 2 76 -3 5 3 11 15 14 18 5 20 12 17 68 -2 50 -7 64 -23 73 -11 6 -22 14 -25 17 -7 8 -55 20 -110 26 l-45 5 19 -21z"></path><path id="p18Tktb2KX" d="M1113 979 c-26 -9 -67 -48 -60 -56 9 -9 78 18 84 33 9 23 -1 32 -24 23z"></path><path id="psQgWP0B3" d="M1190 972 c0 -10 11 -24 25 -30 26 -12 65 -16 65 -7 0 12 -40 43 -64 49 -21 5 -26 3 -26 -12z"></path><path id="p3SBNqOfW" d="M1587 933 l-37 -15 6 -82 c4 -44 10 -85 15 -90 5 -6 9 -26 9 -45 1 -33 2 -35 15 -17 8 11 21 16 29 13 21 -8 50 36 41 62 -3 11 -14 22 -23 25 -12 4 -17 18 -19 51 -1 38 3 50 28 74 16 16 29 32 29 35 0 11 -55 5 -93 -11z"></path><path id="p3mTMeJgc" d="M1160 870 c0 -32 -5 -52 -12 -54 -91 -25 -128 -42 -126 -56 3 -15 30 -17 133 -10 17 1 67 -1 113 -5 69 -7 82 -5 82 7 0 9 -25 23 -65 37 -70 25 -78 34 -89 94 -11 58 -36 49 -36 -13z"></path></g></g><g id="l2OFY0mY5eqZiw7aVK26QhN" fill="rgb(119,125,159)" style="transform: none;"><g style="transform: none;"><path id="plGw1WdNU" d="M1948 1087 c-35 -13 -36 -33 -3 -41 23 -6 115 29 115 44 0 10 -84 8 -112 -3z"></path><path id="pei57xqeT" d="M420 1042 c0 -10 35 -28 68 -35 16 -4 22 -1 22 13 0 10 -7 21 -16 24 -23 9 -74 7 -74 -2z"></path><path id="p1G3jq6N6W" d="M1770 1013 c-14 -3 -32 -10 -40 -17 -8 -7 -35 -21 -60 -30 -25 -10 -49 -21 -55 -25 -5 -4 -52 -20 -102 -37 -100 -31 -101 -32 -86 -104 3 -20 13 -35 25 -37 13 -4 18 -15 18 -38 0 -19 6 -35 14 -38 10 -4 16 -25 18 -64 l3 -58 70 -1 c62 -1 73 2 98 25 25 23 26 26 10 32 -10 4 -25 3 -33 -1 -8 -4 -32 -10 -52 -14 -34 -6 -38 -5 -38 13 0 11 18 44 40 73 22 29 40 56 40 59 0 3 -11 11 -25 17 -28 13 -33 48 -14 84 9 17 8 24 -6 34 -15 12 -15 13 4 23 11 6 30 11 43 11 12 0 45 11 73 24 27 13 62 29 78 35 15 6 27 17 27 26 0 15 -5 16 -50 8z"></path><path id="pajSN0xdC" d="M602 982 c2 -9 18 -20 35 -26 26 -7 34 -15 39 -42 9 -47 0 -64 -35 -64 -40 0 -50 -19 -21 -42 19 -15 23 -28 21 -60 -1 -22 4 -50 12 -62 8 -11 17 -34 21 -51 10 -39 24 -55 48 -55 17 0 19 -5 14 -26 -8 -31 20 -60 41 -42 16 13 17 90 2 105 -12 12 -3 89 12 99 5 3 9 15 9 27 0 21 4 22 63 19 78 -4 96 10 79 63 -6 21 -6 37 -1 41 20 12 7 24 -26 24 -32 0 -244 75 -255 90 -3 4 -18 9 -33 12 -22 4 -27 2 -25 -10z"></path><path id="pO8buVaoI" d="M1104 965 c-33 -29 -26 -43 14 -26 16 7 33 11 38 10 5 -1 27 -1 48 0 38 1 39 1 21 21 -26 29 -84 27 -121 -5z"></path><path id="pqZuOuVst" d="M962 755 c3 -36 6 -40 33 -43 47 -6 105 17 105 42 0 18 -7 21 -44 24 -25 1 -48 -3 -51 -9 -5 -7 -14 -4 -27 8 -19 17 -19 17 -16 -22z"></path><path id="pJIeLxJ8n" d="M1376 778 c-8 -16 -18 -17 -108 -3 -24 4 -28 1 -28 -18 0 -49 108 -90 139 -53 7 8 11 32 9 53 -3 27 -6 33 -12 21z"></path></g></g><g id="l5bTXsewmPNi2Dk0Obpbmn5" fill="rgb(131,135,159)" style="transform: none;"><g style="transform: none;"><path id="p11AQIr7zN" d="M2003 1163 c31 -2 83 -2 115 0 31 2 5 3 -58 3 -63 0 -89 -1 -57 -3z"></path><path id="pEEtPnoUb" d="M231 1121 c-18 -11 -5 -31 19 -31 11 0 35 -9 53 -19 51 -28 117 -32 117 -6 0 8 -2 15 -4 15 -1 0 -34 11 -72 25 -74 27 -92 29 -113 16z"></path><path id="p15Logy5CX" d="M1888 1059 c-21 -11 -38 -24 -38 -29 0 -17 73 -11 118 10 23 10 42 23 42 27 0 17 -86 12 -122 -8z"></path><path id="pqgEZaXSl" d="M1380 871 c0 -5 7 -11 15 -15 16 -6 21 -41 6 -50 -5 -3 -7 -15 -4 -26 4 -16 14 -20 43 -20 45 0 73 24 39 33 -18 5 -20 9 -10 20 9 12 8 16 -4 21 -19 7 -20 26 0 26 8 0 15 5 15 10 0 6 -22 10 -50 10 -27 0 -50 -4 -50 -9z"></path><path id="pUfK9EAQh" d="M1460 731 c-5 -11 -10 -31 -10 -44 0 -14 -7 -27 -15 -31 -11 -4 -15 -21 -15 -66 l0 -60 43 0 42 0 -4 -51 -3 -52 28 21 c16 11 55 47 88 80 l58 60 -31 7 c-17 3 -48 5 -68 4 l-38 -3 3 56 c2 50 0 57 -19 63 -12 4 -18 12 -15 21 8 22 -32 17 -44 -5z"></path><path id="pvjib1zFa" d="M735 660 c-5 -29 -2 -47 11 -69 14 -24 15 -32 5 -45 -18 -22 -5 -36 33 -36 45 0 60 20 52 67 -4 21 -9 54 -12 74 -5 31 -11 38 -36 43 -46 9 -46 9 -53 -34z"></path><path id="pCoHjQlU9" d="M1120 152 c0 -5 11 -15 25 -22 21 -11 29 -11 50 0 38 20 30 30 -25 30 -27 0 -50 -4 -50 -8z"></path></g></g><g id="l3m0I7MWCFGCPQy5xPxyxpw" fill="rgb(137,143,175)" style="transform: none;"><g style="transform: none;"><path id="pJ0lx4LuV" d="M378 1082 c-33 -7 -18 -30 29 -46 26 -9 53 -16 61 -16 8 0 26 -8 40 -19 39 -27 82 -33 82 -11 0 11 -14 21 -42 30 -24 8 -48 17 -53 21 -24 18 -101 45 -117 41z"></path><path id="pj6Lkc80M" d="M1790 1011 c0 -5 -13 -11 -30 -14 -18 -4 -30 -13 -30 -22 0 -12 7 -14 28 -9 68 17 108 54 57 54 -14 0 -25 -4 -25 -9z"></path><path id="pCzlbWMJW" d="M1155 889 l0 -90 -75 -30 c-41 -16 -75 -29 -76 -29 0 0 -16 22 -35 50 -19 27 -36 50 -39 50 -3 0 -10 -10 -15 -22 -15 -33 -62 -35 -104 -4 -41 31 -55 25 -46 -21 3 -19 2 -40 -3 -46 -29 -38 -19 -103 14 -90 10 4 14 -3 14 -28 0 -19 4 -41 10 -49 12 -19 -6 -40 -36 -40 -31 0 -30 -10 5 -44 24 -23 31 -25 37 -13 5 8 19 19 32 26 19 10 22 20 22 74 0 90 7 96 115 102 134 7 205 16 205 25 0 5 15 4 32 -1 39 -11 128 -12 128 -1 -1 14 -89 72 -110 72 -27 0 -40 36 -40 112 0 49 3 59 15 54 10 -4 15 1 15 14 0 16 -7 20 -33 20 l-32 0 0 -91z"></path><path id="pEA3U2g6N" d="M860 883 c0 -17 61 -33 78 -20 25 19 12 32 -33 32 -29 0 -45 -4 -45 -12z"></path><path id="p18HzW89Sc" d="M1399 803 c-34 -37 -49 -66 -49 -97 0 -23 4 -26 33 -26 31 0 32 -1 32 -42 0 -33 4 -43 18 -46 10 -2 17 3 17 12 0 8 7 19 17 24 9 5 17 22 19 38 1 16 8 48 15 71 7 23 10 45 7 49 -4 3 -22 6 -42 7 -26 1 -36 6 -38 20 -3 16 -6 15 -29 -10z"></path><path id="pjdZxEpeK" d="M1538 573 c-21 -5 -22 -21 -4 -46 9 -12 16 -14 21 -8 3 6 15 11 26 11 14 0 19 7 19 25 0 25 -16 30 -62 18z"></path></g></g><g id="l6VM2PWnw5o8Oy529b8HEA2" fill="rgb(155,159,178)" style="transform: none;"><g style="transform: none;"><path id="pUsl5vB9u" d="M232 1163 c32 -2 84 -2 115 0 32 2 6 3 -57 3 -63 0 -89 -1 -58 -3z"></path><path id="p1GggVrfU2" d="M1158 1163 c34 -2 88 -2 120 0 31 2 3 3 -63 3 -66 0 -92 -1 -57 -3z"></path><path id="pqB6jYwhg" d="M432 1038 c4 -10 97 -46 126 -47 27 -2 10 21 -30 39 -48 22 -102 26 -96 8z"></path><path id="pqFIsaGvR" d="M1830 1032 c-19 -9 -36 -20 -38 -24 -2 -5 -10 -8 -18 -8 -8 0 -14 -5 -14 -11 0 -6 8 -8 18 -5 9 2 33 7 52 11 50 9 120 36 120 46 0 15 -83 9 -120 -9z"></path><path id="pHtMEHo5f" d="M1133 974 c-22 -9 -15 -33 7 -27 18 5 20 0 20 -56 0 -34 4 -61 10 -61 6 0 10 27 10 61 0 61 0 61 26 55 21 -6 25 -4 22 11 -2 13 -14 19 -43 20 -22 1 -46 0 -52 -3z"></path><path id="pcc4CSvE0" d="M956 751 c4 -21 2 -30 -11 -35 -20 -7 -65 3 -65 15 0 22 -21 6 -34 -26 -8 -19 -20 -35 -26 -35 -7 0 -8 -6 0 -19 5 -11 10 -38 10 -61 0 -33 -4 -42 -24 -52 -46 -20 -41 -38 34 -112 l70 -71 0 51 c0 41 -5 55 -25 74 l-26 24 38 11 c28 8 39 17 41 33 2 14 10 22 23 22 14 0 19 7 19 28 0 43 32 65 120 83 73 15 80 15 111 -2 19 -10 49 -18 67 -19 22 0 32 -5 32 -15 0 -8 9 -15 20 -15 16 0 19 -8 22 -57 l3 -58 55 -5 55 -5 -22 -20 c-11 -11 -39 -45 -62 -75 -34 -45 -41 -62 -41 -100 l0 -45 95 95 c52 52 95 102 95 111 0 9 9 28 21 43 34 43 19 59 -45 51 l-54 -7 -4 43 c-3 33 1 48 19 70 25 29 31 69 11 69 -7 -1 -31 -7 -53 -15 -45 -16 -54 -12 -37 15 10 17 9 18 -6 13 -9 -3 -24 -12 -32 -19 -21 -18 -138 6 -157 32 -13 17 -14 17 -28 -2 -8 -10 -15 -22 -15 -26 0 -5 -21 -8 -46 -8 -25 0 -54 -5 -65 -10 -16 -9 -22 -6 -40 25 -26 44 -51 48 -43 6z"></path><path id="pYv1L49Dr" d="M1108 160 c39 -36 78 -39 118 -8 l28 23 -29 6 c-17 4 -57 7 -90 8 l-60 0 33 -29z"></path></g></g><g id="l6Ft9n1mfgNB1J4iNyahlf9" fill="rgb(169,173,187)" style="transform: none;"><g style="transform: none;"><path id="p16WIpUhtF" d="M558 1163 c105 -2 279 -2 385 0 105 1 19 2 -193 2 -212 0 -298 -1 -192 -2z"></path><path id="pxPijvPIy" d="M1468 1163 c94 -2 250 -2 345 0 94 1 17 3 -173 3 -190 0 -267 -2 -172 -3z"></path><path id="p8GdKxgf4" d="M520 1011 c0 -8 69 -41 118 -56 44 -13 22 16 -30 40 -55 26 -88 32 -88 16z"></path><path id="p14Apb9vlO" d="M1171 910 c-1 -14 -6 -58 -10 -97 -7 -71 -6 -73 16 -73 19 0 22 4 17 28 -3 15 -9 59 -13 97 -5 39 -9 59 -10 45z"></path><path id="p5CQT9eK5" d="M984 714 c7 -19 -20 -54 -42 -54 -9 0 -12 -6 -8 -15 20 -50 20 -48 -3 -35 -22 11 -23 11 -16 -22 4 -18 8 -34 9 -34 0 -1 24 -16 52 -33 38 -23 63 -31 98 -31 l46 0 0 36 c0 47 -13 70 -50 82 -36 13 -41 42 -6 42 38 0 86 32 86 57 0 21 -1 21 -57 8 -50 -12 -60 -11 -74 1 -22 19 -43 18 -35 -2z"></path><path id="pQanKYw1E" d="M1333 698 c-16 -8 -23 -20 -23 -40 0 -23 -4 -28 -24 -28 -26 0 -36 -16 -36 -60 0 -24 8 -34 43 -55 25 -14 59 -25 80 -25 53 0 57 7 -62 -120 -28 -30 -51 -59 -51 -65 0 -14 -47 -58 -77 -74 -19 -9 -29 -3 -90 54 -37 36 -72 65 -78 65 -5 1 -22 19 -38 41 -18 26 -37 42 -57 46 -23 4 -30 11 -30 28 0 12 -3 36 -6 53 -5 26 -9 29 -32 23 -43 -12 -46 -44 -6 -82 19 -18 34 -42 34 -54 0 -13 41 -61 113 -132 l112 -112 59 -7 58 -6 74 73 c41 41 74 80 74 89 0 15 69 115 94 135 18 15 56 72 56 84 0 6 -29 11 -67 13 l-68 3 0 35 c0 45 11 70 33 70 13 1 11 4 -8 14 -17 10 -30 11 -43 4 -25 -13 -31 -5 -17 21 6 12 9 21 8 20 -2 0 -13 -5 -25 -11z"></path></g></g><g id="l7Nn2DjBvut84aA3IQmpdTm" fill="rgb(184,186,200)" style="transform: none;"><g style="transform: none;"><path id="p17BSu4EhA" d="M2000 1075 c-25 -13 -52 -24 -61 -24 -8 -1 -24 -8 -35 -16 -19 -14 -19 -14 1 -15 21 0 165 65 165 75 0 10 -25 3 -70 -20z"></path><path id="pY8LLVbm9" d="M1775 1003 c-11 -3 -88 -32 -172 -64 -83 -32 -161 -59 -172 -59 -11 0 -66 23 -122 50 -56 28 -114 50 -129 50 -27 0 -73 -16 -205 -71 l-70 -29 -112 44 c-133 52 -166 61 -161 45 4 -11 250 -109 275 -109 7 0 13 -9 13 -21 0 -23 30 -79 42 -79 13 0 9 37 -6 49 -25 21 -26 51 -3 61 12 5 64 27 116 49 51 23 98 41 103 41 19 0 247 -116 248 -126 0 -6 -9 -19 -20 -29 -14 -13 -17 -22 -10 -29 12 -12 39 19 40 45 0 23 16 33 95 62 237 85 371 149 250 120z"></path><path id="pZ0t816vO" d="M1159 762 c-14 -42 -87 -84 -131 -75 -23 5 -29 3 -23 -6 4 -7 2 -24 -5 -37 -11 -20 -11 -27 5 -44 10 -11 24 -20 32 -20 16 0 53 -36 53 -51 0 -7 -11 -9 -30 -6 -27 6 -30 4 -30 -18 0 -23 3 -25 50 -25 l50 0 0 52 c0 39 -5 57 -22 75 l-21 23 27 0 c15 0 35 4 45 10 12 6 28 5 48 -2 28 -11 30 -13 25 -59 -4 -46 -3 -49 24 -59 16 -6 41 -25 57 -41 l27 -31 -20 -28 c-13 -19 -20 -44 -20 -76 l0 -48 46 50 c98 105 114 127 114 158 0 12 -11 16 -47 16 -57 0 -136 41 -126 66 4 10 13 14 26 10 12 -3 27 0 34 6 16 13 17 48 3 48 -7 0 -8 14 -4 38 7 36 6 37 -13 20 -11 -10 -27 -18 -37 -18 -25 0 -96 39 -96 53 0 6 -7 21 -15 31 -14 19 -15 18 -26 -12z"></path><path id="p1AF2o1DJD" d="M909 613 c-1 -4 0 -18 1 -31 1 -17 -6 -25 -30 -34 -31 -10 -32 -12 -26 -54 7 -52 22 -79 53 -93 12 -6 32 -25 44 -44 12 -18 33 -38 47 -45 l24 -11 -7 57 c-4 32 -15 66 -25 77 -22 25 -30 69 -20 105 6 20 3 31 -14 46 -28 27 -46 37 -47 27z"></path></g></g><g id="l66rm3CcHRzSGmmNHtit07O" fill="rgb(204,205,213)" style="transform: none;"><g style="transform: none;"><path id="piX1lS5yT" d="M940 800 c0 -6 23 -50 52 -99 l51 -88 46 4 c34 3 42 2 31 -6 -8 -6 -26 -11 -39 -11 l-24 0 21 -23 c25 -27 29 -67 7 -67 -8 0 -39 16 -70 35 -71 46 -87 52 -79 31 3 -8 -1 -30 -10 -47 -14 -29 -14 -34 -1 -49 8 -9 15 -26 15 -37 0 -11 9 -28 20 -38 11 -10 20 -30 20 -45 0 -21 18 -44 76 -99 80 -74 108 -85 157 -60 28 15 77 60 77 72 0 5 9 20 20 34 11 14 20 33 20 42 0 9 14 34 30 55 17 22 30 44 30 49 0 16 -75 86 -104 96 -31 12 -33 26 -6 41 24 13 30 76 6 67 -8 -3 -33 4 -55 15 -39 19 -45 20 -81 5 -63 -24 -103 -6 -152 71 -38 58 -58 76 -58 52z m309 -310 c6 0 11 -4 11 -10 0 -5 -4 -10 -10 -10 -5 0 -10 -18 -10 -40 0 -22 -6 -42 -14 -47 -7 -4 -23 -30 -35 -57 l-21 -49 -23 21 c-12 11 -33 25 -46 30 -18 6 -28 21 -37 58 -20 74 -20 74 34 74 38 0 55 6 82 29 30 25 37 27 46 15 6 -8 16 -14 23 -14z"></path><path id="p1GTCCIL4P" d="M1388 793 c-40 -49 -66 -115 -37 -97 13 8 69 94 69 106 0 14 -16 9 -32 -9z"></path></g></g><g id="l6jGYWy1VtzDDq1TLQntarM" fill="rgb(219,220,226)" style="transform: none;"><g style="transform: none;"><path id="pzXKRlYD9" d="M1328 700 c-27 -47 -55 -55 -155 -47 -71 5 -143 -1 -143 -14 0 -4 12 -22 27 -39 23 -28 30 -31 62 -25 20 3 65 9 101 12 36 2 71 9 77 15 14 11 73 117 73 130 0 20 -21 4 -42 -32z"></path><path id="p1CoHwRIdX" d="M1155 523 c-35 -30 -43 -33 -85 -27 -35 5 -49 2 -59 -10 -10 -12 -11 -19 -2 -30 6 -7 9 -21 5 -30 -3 -9 -1 -23 6 -31 7 -8 13 -29 15 -47 2 -26 10 -37 38 -53 19 -11 46 -28 60 -38 37 -27 65 -14 90 41 11 26 29 53 39 60 15 11 18 21 13 44 -6 24 -3 33 15 45 25 18 23 51 -5 67 -11 6 -24 16 -30 22 -23 26 -61 21 -100 -13z m20 -82 c-14 -28 -18 -30 -36 -18 -19 12 -19 12 6 15 17 2 27 11 32 30 3 15 8 22 10 15 2 -6 -3 -25 -12 -42z"></path></g></g><g id="l1Gau6XNDniDxaT5RqhvaSX" fill="rgb(232,233,239)" style="transform: none;"><g style="transform: none;"><path id="p5aucjIwE" d="M1193 532 c-28 -10 -44 -23 -48 -39 -4 -16 -13 -23 -30 -23 -13 0 -26 -3 -28 -8 -11 -17 7 -61 29 -73 17 -8 24 -21 24 -41 0 -23 4 -28 23 -28 32 0 49 18 36 42 -7 12 -6 25 1 39 7 11 17 42 24 67 7 26 17 55 21 65 9 20 3 20 -52 -1z"></path></g></g></svg>
